Coordinates
version=1
nRows=26
nColumns=34
inDegrees=no

Units are S.I. units (second, meters, Newtons, ...)
If the header above contains a line with 'inDegrees', this indicates whether rotational values are in degrees (yes) or radians (no).

endheader
time	pelvis_tilt	pelvis_list	pelvis_rotation	pelvis_tx	pelvis_ty	pelvis_tz	hip_flexion_r	hip_adduction_r	hip_rotation_r	knee_angle_r	ankle_angle_r	subtalar_angle_r	mtp_angle_r	hip_flexion_l	hip_adduction_l	hip_rotation_l	knee_angle_l	ankle_angle_l	subtalar_angle_l	mtp_angle_l	lumbar_extension	lumbar_bending	lumbar_rotation	arm_flex_r	arm_add_r	arm_rot_r	elbow_flex_r	pro_sup_r	arm_flex_l	arm_add_l	arm_rot_l	elbow_flex_l	pro_sup_l
53.7559	0.0420765	-0.147122	7.39457	0.41846	0.816947	-0.666098	0.450976	-0.389364	-0.356747	1.29258	0.00759073	-0.508244	-0.133286	0.642417	-0.0731151	-0.137818	1.12683	0.495688	-0.389481	-0.133286	-0.117996	0.0958294	0.182061	0.33659	-0.444546	0.235932	0.50205	1.92296	20.2281	-0.314291	19.8058	1.63423	2.09
53.7759	0.0529087	-0.119982	7.44673	0.417887	0.821088	-0.674417	0.490278	-0.363062	-0.388067	1.33358	0.104893	-0.477384	-0.133286	0.598325	-0.0462024	-0.110353	1.10776	0.496721	-0.369444	-0.133286	-0.130728	0.0944729	0.199329	0.339918	-0.410821	0.301717	0.525922	1.81483	20.191	-0.31354	19.7943	1.66398	2.09
53.7959	0.0623026	-0.095978	7.4992	0.418264	0.824265	-0.680993	0.500816	-0.34841	-0.425155	1.34456	0.154323	-0.453551	-0.133286	0.561932	-0.02703	-0.0825269	1.09481	0.49836	-0.343154	-0.133286	-0.140931	0.0944343	0.220861	0.338986	-0.380595	0.361015	0.554123	1.69464	20.1594	-0.316645	19.7872	1.69327	2.09
53.8159	0.069949	-0.0761283	7.55011	0.419301	0.826497	-0.686445	0.488011	-0.344572	-0.464079	1.33976	0.165624	-0.440409	-0.133286	0.533666	-0.0140723	-0.0558698	1.08743	0.50079	-0.314325	-0.133286	-0.148133	0.0956585	0.246434	0.337068	-0.354793	0.414291	0.585321	1.57173	20.1323	-0.324514	19.7842	1.72367	2.09
53.8359	0.0761405	-0.0602443	7.59724	0.420604	0.827875	-0.691098	0.460939	-0.348891	-0.503264	1.33077	0.153977	-0.437831	-0.133286	0.512666	-0.00610213	-0.032086	1.0848	0.504012	-0.285837	-0.133286	-0.152885	0.0982169	0.27515	0.33803	-0.334614	0.463413	0.619858	1.4518	20.1078	-0.3377	19.7844	1.75654	2.09
53.8559	0.0813382	-0.0474936	7.63846	0.42174	0.828511	-0.695096	0.429845	-0.358607	-0.539903	1.32554	0.128833	-0.443286	-0.133286	0.497394	-0.00163771	-0.012005	1.08601	0.507994	-0.260352	-0.133286	-0.156008	0.102109	0.305903	0.34554	-0.321065	0.510196	0.659066	1.33729	20.083	-0.356494	19.7868	1.79297	2.09
53.8759	0.0857214	-0.0370278	7.67197	0.422375	0.828459	-0.698464	0.403913	-0.371787	-0.569603	1.32908	0.0927438	-0.45418	-0.133286	0.486476	0.00107614	0.00440973	1.09036	0.512806	-0.240204	-0.133286	-0.158161	0.106849	0.337578	0.362806	-0.314674	0.555729	0.704651	1.22923	20.0555	-0.381274	19.7917	1.83353	2.09
53.8959	0.089258	-0.0280312	7.69665	0.422338	0.827721	-0.701136	0.389377	-0.387805	-0.588887	1.34393	0.0448316	-0.469053	-0.133286	0.478833	0.00339562	0.0171139	1.09748	0.518636	-0.226548	-0.133286	-0.160219	0.11156	0.368958	0.392884	-0.316026	0.601824	0.758797	1.12436	20.0226	-0.412624	19.7999	1.87763	2.09
53.9159	0.0921156	-0.0196212	7.71199	0.421608	0.826302	-0.702999	0.389047	-0.407365	-0.596655	1.37074	-0.0163582	-0.486377	-0.133286	0.473484	0.0057589	0.0256321	1.10727	0.525605	-0.219348	-0.133286	-0.163526	0.11558	0.398616	0.438726	-0.325599	0.649997	0.823772	1.0199	19.9822	-0.451303	19.812	1.92321	2.09
53.9359	0.0949127	-0.0109109	7.71766	0.420278	0.824272	-0.703981	0.403375	-0.432068	-0.593393	1.40863	-0.0915185	-0.503548	-0.133286	0.469289	0.00762855	0.0292762	1.11961	0.533585	-0.21803	-0.133286	-0.169613	0.118844	0.425112	0.502705	-0.343062	0.701227	0.901299	0.913517	19.9318	-0.497944	19.8281	1.96661	2.09
53.9559	0.0985155	-0.00154197	7.71309	0.418537	0.821809	-0.704128	0.431941	-0.463748	-0.579937	1.455	-0.17884	-0.517409	-0.133286	0.465178	0.00780373	0.0273371	1.13392	0.542169	-0.221972	-0.133286	-0.17933	0.121741	0.447062	0.585454	-0.365149	0.753323	0.98991	0.810358	19.8682	-0.552386	19.846	2.00292	2.09
53.9759	0.103702	0.00763734	7.69755	0.416664	0.819163	-0.703632	0.473815	-0.503362	-0.557268	1.50411	-0.270121	-0.526066	-0.133286	0.460795	0.00472933	0.0191694	1.14902	0.550881	-0.230799	-0.133286	-0.191909	0.124839	0.463004	0.684576	-0.383609	0.798353	1.08215	0.722481	19.7859	-0.613159	19.8606	2.02707	2.09
53.9959	0.111176	0.0149431	7.67022	0.414983	0.816511	-0.702768	0.525866	-0.549129	-0.52702	1.54542	-0.346122	-0.530798	-0.133286	0.456568	-0.00331637	0.00441189	1.16403	0.559645	-0.24459	-0.133286	-0.205727	0.129035	0.472474	0.795873	-0.393094	0.833432	1.17234	0.656674	19.6795	-0.677043	19.8644	2.03489	2.09
54.0159	0.120816	0.0182075	7.6306	0.413879	0.813824	-0.701806	0.581611	-0.595596	-0.491935	1.56275	-0.378517	-0.53567	-0.133286	0.453964	-0.0172426	-0.0168155	1.17888	0.568647	-0.264106	-0.133286	-0.218585	0.134621	0.475742	0.914262	-0.39072	0.857462	1.25533	0.615381	19.5461	-0.739543	19.8496	2.02471	2.09
54.0358	0.131324	0.0155896	7.57913	0.413709	0.810835	-0.70093	0.631546	-0.634742	-0.456295	1.53637	-0.345415	-0.542404	-0.133286	0.455036	-0.036427	-0.0436836	1.19442	0.578172	-0.29055	-0.133286	-0.228334	0.140914	0.473206	1.03545	-0.376077	0.869732	1.32641	0.595673	19.3866	-0.794611	19.809	1.99844	2.09
54.0558	0.140654	0.0065131	7.51785	0.414688	0.807205	-0.700216	0.665226	-0.659052	-0.426119	1.44958	-0.248899	-0.545937	-0.133286	0.461307	-0.058985	-0.0746325	1.21179	0.588448	-0.324415	-0.133286	-0.233578	0.146819	0.464911	1.15674	-0.35142	0.869585	1.38161	0.592891	19.2069	-0.835125	19.7389	1.96141	2.09
54.0758	0.146852	-0.00785337	7.45027	0.416951	0.802717	-0.699671	0.674827	-0.664624	-0.407366	1.29867	-0.112952	-0.537369	-0.133286	0.472773	-0.0826466	-0.107565	1.23176	0.599574	-0.364794	-0.133286	-0.234128	0.151482	0.450561	1.27747	-0.321725	0.858031	1.4183	0.604266	19.0179	-0.855376	19.6419	1.92075	2.09
54.0958	0.148533	-0.025112	7.38057	0.420741	0.797361	-0.699209	0.659213	-0.652761	-0.402554	1.09871	0.0316125	-0.50996	-0.133286	0.488032	-0.105566	-0.14028	1.25446	0.611411	-0.409501	-0.133286	-0.230697	0.15432	0.429426	1.39957	-0.293929	0.840397	1.43558	0.628465	18.8331	-0.854099	19.5266	1.88346	2.09
54.1158	0.144882	-0.042595	7.31228	0.426552	0.791328	-0.698591	0.625515	-0.629618	-0.409856	0.879923	0.158709	-0.461115	-0.133286	0.504969	-0.12693	-0.171266	1.27931	0.623546	-0.45528	-0.133286	-0.22419	0.154639	0.400587	1.52484	-0.274075	0.823183	1.43396	0.665994	18.6642	-0.83501	19.4051	1.85449	2.09
54.1358	0.135261	-0.0582307	7.247	0.435119	0.78493	-0.697377	0.586726	-0.604086	-0.426202	0.676512	0.251833	-0.392383	-0.133286	0.521485	-0.147092	-0.200497	1.30502	0.635427	-0.498546	-0.133286	-0.214932	0.15139	0.363237	1.65286	-0.264462	0.811303	1.41462	0.71946	18.5176	-0.80434	19.2877	1.83595	2.09
54.1558	0.11919	-0.0710642	7.18387	0.447219	0.77852	-0.694952	0.55616	-0.582747	-0.449059	0.512324	0.303259	-0.311488	-0.133286	0.536017	-0.167429	-0.229338	1.32981	0.646305	-0.536639	-0.133286	-0.202597	0.14384	0.317803	1.78136	-0.264721	0.808991	1.38055	0.791919	18.3946	-0.767195	19.1808	1.82712	2.09
54.1758	0.0964499	-0.0805516	7.12105	0.463513	0.772408	-0.690711	0.542942	-0.568569	-0.477422	0.395996	0.312046	-0.228963	-0.133286	0.547103	-0.189301	-0.259486	1.35176	0.655399	-0.567782	-0.133286	-0.18683	0.131677	0.265757	1.90706	-0.273875	0.819603	1.33754	0.887384	18.2944	-0.726835	19.088	1.8259	2.09
54.1958	0.0669442	-0.0861809	7.05744	0.48428	0.766795	-0.684296	0.551297	-0.561487	-0.510054	0.32467	0.280927	-0.154838	-0.133286	0.553532	-0.212888	-0.292102	1.36897	0.661967	-0.590783	-0.133286	-0.167414	0.115102	0.208707	2.02647	-0.291288	0.84477	1.29327	1.00952	18.2155	-0.685028	19.0107	1.83047	2.09
54.2158	0.0305354	-0.0878954	6.99338	0.509154	0.761776	-0.675769	0.582259	-0.559539	-0.542931	0.290481	0.214182	-0.0959489	-0.133286	0.555091	-0.237002	-0.327563	1.37962	0.665286	-0.605251	-0.133286	-0.144025	0.0951913	0.148313	2.1372	-0.316983	0.884347	1.2556	1.15902	18.1577	-0.642374	18.9497	1.83982	2.09
54.2358	-0.0126935	-0.0866334	6.93058	0.537057	0.757405	-0.665666	0.634812	-0.560019	-0.56818	0.285715	0.119422	-0.0568888	-0.133286	0.552981	-0.25989	-0.365369	1.38221	0.664532	-0.612772	-0.133286	-0.116177	0.074278	0.0866122	2.23848	-0.351287	0.936545	1.23037	1.33291	18.1229	-0.599098	18.9066	1.85367	2.09
54.2558	-0.0617267	-0.0841175	6.87094	0.566586	0.75372	-0.654786	0.70573	-0.560078	-0.577337	0.304766	0.0111228	-0.0411149	-0.133286	0.548868	-0.280544	-0.404344	1.37595	0.659267	-0.615827	-0.133286	-0.0838468	0.0555432	0.0269584	2.33085	-0.394384	0.998499	1.22035	1.52125	18.1146	-0.556304	18.8832	1.87266	2.09
